<?xml version="1.0" standalone="no"?><!DOCTYPE svg PUBLIC "-//W3C//DTD SVG 1.1//EN" "http://www.w3.org/Graphics/SVG/1.1/DTD/svg11.dtd"><svg t="1597639988429" class="icon" viewBox="0 0 1024 1024" version="1.1" xmlns="http://www.w3.org/2000/svg" p-id="2063" xmlns:xlink="http://www.w3.org/1999/xlink" width="128" height="128"><defs><style type="text/css"></style></defs><path d="M832 64H704c0-35.328-28.672-64-64-64H384c-35.328 0-64 28.672-64 64H192c-70.72 0-128 57.28-128 128v704c0 70.72 57.28 128 128 128h640c70.72 0 128-57.28 128-128V192c0-70.72-57.28-128-128-128zM320 768c-35.328 0-64-28.672-64-64s28.672-64 64-64h386c35.328 0 64 28.672 64 64s-28.672 64-64 64H320z m384-256H320c-35.328 0-64-28.672-64-64s28.672-64 64-64h384c35.328 0 64 28.672 64 64s-28.672 64-64 64z" p-id="2064"></path></svg>